<?xml version="1.0"?>
<svg xmlns="http://www.w3.org/2000/svg" xmlns:xlink="http://www.w3.org/1999/xlink" xmlns:svgjs="http://svgjs.com/svgjs" version="1.1" width="512" height="512" x="0" y="0" viewBox="0 0 508 508" style="enable-background:new 0 0 512 512" xml:space="preserve" class=""><g>
<g xmlns="http://www.w3.org/2000/svg">
	<g>
		<path d="M254,98.3c-85.8,0-155.7,69.8-155.7,155.7c0,85.8,69.8,155.7,155.7,155.7c85.8,0,155.7-69.8,155.7-155.7    C409.7,168.2,339.8,98.3,254,98.3z M254,393.3c-76.8,0-139.3-62.5-139.3-139.3S177.2,114.7,254,114.7S393.3,177.2,393.3,254    S330.8,393.3,254,393.3z" fill="#ffffff" data-original="#000000" style="" class=""/>
	</g>
</g>
<g xmlns="http://www.w3.org/2000/svg">
	<g>
		<rect x="245.8" width="16.4" height="65.5" fill="#ffffff" data-original="#000000" style="" class=""/>
	</g>
</g>
<g xmlns="http://www.w3.org/2000/svg">
	<g>
		<rect x="245.8" y="442.5" width="16.4" height="65.5" fill="#ffffff" data-original="#000000" style="" class=""/>
	</g>
</g>
<g xmlns="http://www.w3.org/2000/svg">
	<g>
		<rect x="165.838" y="40.538" transform="matrix(0.9239 -0.3827 0.3827 0.9239 -10.1107 71.2486)" width="16.4" height="41.001" fill="#ffffff" data-original="#000000" style="" class=""/>
	</g>
</g>
<g xmlns="http://www.w3.org/2000/svg">
	<g>
		
			<rect x="325.741" y="426.507" transform="matrix(0.9239 -0.3827 0.3827 0.9239 -145.6444 161.8232)" width="16.4" height="41.001" fill="#ffffff" data-original="#000000" style="" class=""/>
	</g>
</g>
<g xmlns="http://www.w3.org/2000/svg">
	<g>
		<polygon points="45.2,158.6 38.9,173.8 76.8,189.5 83,174.3   " fill="#ffffff" data-original="#000000" style="" class=""/>
	</g>
</g>
<g xmlns="http://www.w3.org/2000/svg">
	<g>
		
			<rect x="438.866" y="313.417" transform="matrix(0.3827 -0.9239 0.9239 0.3827 -32.5205 619.1638)" width="16.4" height="41.001" fill="#ffffff" data-original="#000000" style="" class=""/>
	</g>
</g>
<g xmlns="http://www.w3.org/2000/svg">
	<g>
		<rect x="313.478" y="52.81" transform="matrix(0.3828 -0.9238 0.9238 0.3828 149.7641 346.1919)" width="40.999" height="16.4" fill="#ffffff" data-original="#000000" style="" class=""/>
	</g>
</g>
<g xmlns="http://www.w3.org/2000/svg">
	<g>
		
			<rect x="153.617" y="438.799" transform="matrix(0.3828 -0.9238 0.9238 0.3828 -305.4864 436.7366)" width="40.999" height="16.399" fill="#ffffff" data-original="#000000" style="" class=""/>
	</g>
</g>
<g xmlns="http://www.w3.org/2000/svg">
	<g>
		<rect x="40.522" y="325.79" transform="matrix(0.9239 -0.3827 0.3827 0.9239 -123.1695 48.7772)" width="41.001" height="16.4" fill="#ffffff" data-original="#000000" style="" class=""/>
	</g>
</g>
<g xmlns="http://www.w3.org/2000/svg">
	<g>
		<polygon points="462.8,158.6 425,174.3 431.2,189.5 469.1,173.8   " fill="#ffffff" data-original="#000000" style="" class=""/>
	</g>
</g>
<g xmlns="http://www.w3.org/2000/svg">
	<g>
		<rect x="377.657" y="89.34" transform="matrix(0.7071 -0.7071 0.7071 0.7071 51.2341 318.7698)" width="65.499" height="16.4" fill="#ffffff" data-original="#000000" style="" class=""/>
	</g>
</g>
<g xmlns="http://www.w3.org/2000/svg">
	<g>
		
			<rect x="64.807" y="402.199" transform="matrix(0.7071 -0.7071 0.7071 0.7071 -261.6227 189.1859)" width="65.499" height="16.4" fill="#ffffff" data-original="#000000" style="" class=""/>
	</g>
</g>
<g xmlns="http://www.w3.org/2000/svg">
	<g>
		<polygon points="483.4,245.8 442.5,245.8 442.5,262.2 483.4,262.2 508,262.2 508,245.8   " fill="#ffffff" data-original="#000000" style="" class=""/>
	</g>
</g>
<g xmlns="http://www.w3.org/2000/svg">
	<g>
		<polygon points="393.1,381.5 381.5,393.1 410.4,422 427.8,439.4 439.4,427.8   " fill="#ffffff" data-original="#000000" style="" class=""/>
	</g>
</g>
<g xmlns="http://www.w3.org/2000/svg">
	<g>
		<polygon points="24.6,245.8 0,245.8 0,262.2 24.6,262.2 65.5,262.2 65.5,245.8   " fill="#ffffff" data-original="#000000" style="" class=""/>
	</g>
</g>
<g xmlns="http://www.w3.org/2000/svg">
	<g>
		<polygon points="97.6,86 80.2,68.6 68.6,80.2 114.9,126.5 126.5,115   " fill="#ffffff" data-original="#000000" style="" class=""/>
	</g>
</g>
<g xmlns="http://www.w3.org/2000/svg">
</g>
<g xmlns="http://www.w3.org/2000/svg">
</g>
<g xmlns="http://www.w3.org/2000/svg">
</g>
<g xmlns="http://www.w3.org/2000/svg">
</g>
<g xmlns="http://www.w3.org/2000/svg">
</g>
<g xmlns="http://www.w3.org/2000/svg">
</g>
<g xmlns="http://www.w3.org/2000/svg">
</g>
<g xmlns="http://www.w3.org/2000/svg">
</g>
<g xmlns="http://www.w3.org/2000/svg">
</g>
<g xmlns="http://www.w3.org/2000/svg">
</g>
<g xmlns="http://www.w3.org/2000/svg">
</g>
<g xmlns="http://www.w3.org/2000/svg">
</g>
<g xmlns="http://www.w3.org/2000/svg">
</g>
<g xmlns="http://www.w3.org/2000/svg">
</g>
<g xmlns="http://www.w3.org/2000/svg">
</g>
</g></svg>
