<?xml version="1.0"?>
<svg xmlns="http://www.w3.org/2000/svg" xmlns:xlink="http://www.w3.org/1999/xlink" xmlns:svgjs="http://svgjs.com/svgjs" version="1.1" width="512" height="512" x="0" y="0" viewBox="0 0 508.1 508.1" style="enable-background:new 0 0 512 512" xml:space="preserve" class=""><g>
<g xmlns="http://www.w3.org/2000/svg">
	<g>
		<path d="M303.2,42.262v16.4c54.2,0,98.3,44.1,98.3,98.3h16.4C417.9,93.662,366.4,42.262,303.2,42.262z" fill="#ffffff" data-original="#000000" style="" class=""/>
	</g>
</g>
<g xmlns="http://www.w3.org/2000/svg">
	<g>
		<rect x="230.875" y="419.112" transform="matrix(0.7071 -0.7071 0.7071 0.7071 -227.753 304.7795)" width="46.3" height="16.4" fill="#ffffff" data-original="#000000" style="" class=""/>
	</g>
</g>
<g xmlns="http://www.w3.org/2000/svg">
	<g>
		<rect x="140.765" y="419.139" transform="matrix(0.7071 -0.7071 0.7071 0.7071 -254.1646 241.0699)" width="46.3" height="16.4" fill="#ffffff" data-original="#000000" style="" class=""/>
	</g>
</g>
<g xmlns="http://www.w3.org/2000/svg">
	<g>
		<rect x="50.585" y="419.092" transform="matrix(0.7071 -0.7071 0.7071 0.7071 -280.5445 177.2893)" width="46.3" height="16.4" fill="#ffffff" data-original="#000000" style="" class=""/>
	</g>
</g>
<g xmlns="http://www.w3.org/2000/svg">
	<g>
		<rect x="411.165" y="419.142" transform="matrix(0.7071 -0.7071 0.7071 0.7071 -174.9685 432.2727)" width="46.3" height="16.4" fill="#ffffff" data-original="#000000" style="" class=""/>
	</g>
</g>
<g xmlns="http://www.w3.org/2000/svg">
	<g>
		<rect x="320.985" y="419.092" transform="matrix(0.7071 -0.7071 0.7071 0.7071 -201.3461 368.4907)" width="46.3" height="16.4" fill="#ffffff" data-original="#000000" style="" class=""/>
	</g>
</g>
<g xmlns="http://www.w3.org/2000/svg">
	<g>
		<rect x="259.612" y="476.448" transform="matrix(0.7071 -0.7071 0.7071 0.7071 -259.8785 341.8928)" width="46.3" height="16.4" fill="#ffffff" data-original="#000000" style="" class=""/>
	</g>
</g>
<g xmlns="http://www.w3.org/2000/svg">
	<g>
		<rect x="169.502" y="476.471" transform="matrix(0.7071 -0.7071 0.7071 0.7071 -286.2875 278.1824)" width="46.3" height="16.4" fill="#ffffff" data-original="#000000" style="" class=""/>
	</g>
</g>
<g xmlns="http://www.w3.org/2000/svg">
	<g>
		<rect x="79.322" y="476.422" transform="matrix(0.7071 -0.7071 0.7071 0.7071 -312.6665 214.4011)" width="46.3" height="16.4" fill="#ffffff" data-original="#000000" style="" class=""/>
	</g>
</g>
<g xmlns="http://www.w3.org/2000/svg">
	<g>
		<rect x="349.722" y="476.422" transform="matrix(0.7071 -0.7071 0.7071 0.7071 -233.4681 405.6026)" width="46.3" height="16.4" fill="#ffffff" data-original="#000000" style="" class=""/>
	</g>
</g>
<g xmlns="http://www.w3.org/2000/svg">
	<g>
		<path d="M288,238.962h-70.3l15.4-41h-74.9l-55.3,147.5h45.9l-29.7,94L288,238.962z M126.5,328.962l43.1-114.7h39.8l-15.4,41h58.8    l-93.3,110.8l11.6-37.1H126.5z" fill="#ffffff" data-original="#000000" style="" class=""/>
	</g>
</g>
<g xmlns="http://www.w3.org/2000/svg">
	<g>
		<path d="M462.6,155.162c0-84.9-69.1-153.9-153.9-153.9c-46.4,0-89.4,20.4-118.8,56.3c-59.9-11.1-112.3,33-116.8,89.8    c-41,3.9-73.1,38.6-73.1,80.6c0,44.7,36.3,81,81,81h53l35.6-94.7h39.8l-15.4,41h58.7l-45.2,53.7h69.9c19,23.2,46.7,36.4,76.7,36.4    c30.1,0,57.8-13.2,76.9-36.5c42.9-2,77.1-37.5,77.1-80.9C508.1,196.662,490.4,168.662,462.6,155.162z M427.1,292.562H423l-2.5,3.3    c-15.9,21-40,33.1-66.2,33.1c-26.2,0-50.3-12-66.2-33.1l-2.5-3.3h-42.8l45.2-53.7h-70.3l15.4-41h-74.9l-35.5,94.7H81    c-35.6,0-64.6-29-64.6-64.6s29-64.6,64.6-64.6h8.5v-8.2c0-45.6,37.1-82.8,82.8-82.8c6.2,0,12.7,0.8,19.2,2.3l5.2,1.2l3.2-4.2    c26.3-34.3,66-54,109-54c75.8,0,137.5,61.7,137.5,137.5c0,0.9,0,1.7-0.1,2.6l-0.4,8.1l5.4,2.1c24.6,9.9,40.6,33.5,40.6,60    C491.9,263.562,462.9,292.562,427.1,292.562z" fill="#ffffff" data-original="#000000" style="" class=""/>
	</g>
</g>
<g xmlns="http://www.w3.org/2000/svg">
</g>
<g xmlns="http://www.w3.org/2000/svg">
</g>
<g xmlns="http://www.w3.org/2000/svg">
</g>
<g xmlns="http://www.w3.org/2000/svg">
</g>
<g xmlns="http://www.w3.org/2000/svg">
</g>
<g xmlns="http://www.w3.org/2000/svg">
</g>
<g xmlns="http://www.w3.org/2000/svg">
</g>
<g xmlns="http://www.w3.org/2000/svg">
</g>
<g xmlns="http://www.w3.org/2000/svg">
</g>
<g xmlns="http://www.w3.org/2000/svg">
</g>
<g xmlns="http://www.w3.org/2000/svg">
</g>
<g xmlns="http://www.w3.org/2000/svg">
</g>
<g xmlns="http://www.w3.org/2000/svg">
</g>
<g xmlns="http://www.w3.org/2000/svg">
</g>
<g xmlns="http://www.w3.org/2000/svg">
</g>
</g></svg>
