<?xml version="1.0"?>
<svg xmlns="http://www.w3.org/2000/svg" xmlns:xlink="http://www.w3.org/1999/xlink" xmlns:svgjs="http://svgjs.com/svgjs" version="1.1" width="512" height="512" x="0" y="0" viewBox="0 0 508 508" style="enable-background:new 0 0 512 512" xml:space="preserve" class=""><g>
<g xmlns="http://www.w3.org/2000/svg">
	<g>
		<polygon points="508,245.8 454,245.8 489.2,210.6 477.6,199 430.9,245.8 396.7,245.8 431.9,210.6 420.3,199 373.5,245.8     273.8,245.8 344.3,175.3 410.4,175.3 410.4,158.9 360.7,158.9 384.9,134.7 451,134.7 451,118.3 401.2,118.3 439.4,80.2     427.8,68.6 389.7,106.8 389.7,57 373.3,57 373.3,123.1 349.1,147.3 349.1,97.6 332.7,97.6 332.7,163.7 262.2,234.2 262.2,134.5     309,87.7 297.4,76.1 262.2,111.3 262.2,77.1 309,30.4 297.4,18.8 262.2,54 262.2,0 245.8,0 245.8,54 210.6,18.8 199,30.4     245.8,77.1 245.8,111.3 210.6,76.1 199,87.7 245.8,134.5 245.8,234.2 175.3,163.7 175.3,97.6 158.9,97.6 158.9,147.3 134.7,123.1     134.7,57 118.3,57 118.3,106.8 80.2,68.6 68.6,80.2 106.8,118.3 57,118.3 57,134.7 123.1,134.7 147.3,158.9 97.6,158.9     97.6,175.3 163.7,175.3 234.2,245.8 134.5,245.8 87.7,199 76.1,210.6 111.3,245.8 77.1,245.8 30.4,199 18.8,210.6 54,245.8     0,245.8 0,262.2 54,262.2 18.8,297.4 30.4,309 77.1,262.2 111.3,262.2 76.1,297.4 87.7,309 134.5,262.2 234.2,262.2 163.7,332.7     97.6,332.7 97.6,349.1 147.3,349.1 123.1,373.3 57,373.3 57,389.7 106.8,389.7 68.6,427.8 80.2,439.4 118.3,401.2 118.3,451     134.7,451 134.7,384.9 158.9,360.7 158.9,410.4 175.3,410.4 175.3,344.3 245.8,273.8 245.8,373.5 199,420.3 210.6,431.9     245.8,396.7 245.8,430.9 199,477.6 210.6,489.2 245.8,454 245.8,508 262.2,508 262.2,454 297.4,489.2 309,477.6 262.2,430.9     262.2,396.7 297.4,431.9 309,420.3 262.2,373.5 262.2,273.8 332.7,344.3 332.7,410.4 349.1,410.4 349.1,360.7 373.3,384.9     373.3,451 389.7,451 389.7,401.2 427.8,439.4 439.4,427.8 401.2,389.7 451,389.7 451,373.3 384.9,373.3 360.7,349.1 410.4,349.1     410.4,332.7 344.3,332.7 273.8,262.2 373.5,262.2 420.3,309 431.9,297.4 396.7,262.2 430.9,262.2 477.6,309 489.2,297.4     454,262.2 508,262.2   " fill="#ffffff" data-original="#000000" style=""/>
	</g>
</g>
<g xmlns="http://www.w3.org/2000/svg">
</g>
<g xmlns="http://www.w3.org/2000/svg">
</g>
<g xmlns="http://www.w3.org/2000/svg">
</g>
<g xmlns="http://www.w3.org/2000/svg">
</g>
<g xmlns="http://www.w3.org/2000/svg">
</g>
<g xmlns="http://www.w3.org/2000/svg">
</g>
<g xmlns="http://www.w3.org/2000/svg">
</g>
<g xmlns="http://www.w3.org/2000/svg">
</g>
<g xmlns="http://www.w3.org/2000/svg">
</g>
<g xmlns="http://www.w3.org/2000/svg">
</g>
<g xmlns="http://www.w3.org/2000/svg">
</g>
<g xmlns="http://www.w3.org/2000/svg">
</g>
<g xmlns="http://www.w3.org/2000/svg">
</g>
<g xmlns="http://www.w3.org/2000/svg">
</g>
<g xmlns="http://www.w3.org/2000/svg">
</g>
</g></svg>
